<svg width="32" height="37" viewBox="0 0 32 37" fill="none" xmlns="http://www.w3.org/2000/svg">
<path fill-rule="evenodd" clip-rule="evenodd" d="M16.2418 0.569488C15.9472 0.48851 15.6136 0.539146 15.339 0.769592L1.41855 12.4502C1.17554 12.6012 0.955719 12.786 0.765625 12.9981C0.653625 13.0922 0.567444 13.2056 0.507843 13.3294C0.187134 13.8068 0 14.3816 0 15V33C0 34.6569 1.34314 36 3 36H10H11C12.1046 36 13 35.1046 13 34V26C13 25.4477 13.4477 25 14 25H15.9977V25.005H18.1007C18.5857 25.0535 18.9687 25.4486 18.9982 25.939V34.005C18.9982 35.1096 19.8936 36.005 20.9982 36.005H21.9986L28.9995 36.005V33.005H21.9986V25.005V24.005C21.9986 22.9004 21.1032 22.005 19.9986 22.005H16V22H12C10.8954 22 10 22.8954 10 24V25V32C10 32.5523 9.55228 33 9 33H4C3.44772 33 3 32.5523 3 32V15.0474L15.9958 4.23969L28.9995 15.0524V32.0305C28.9834 32.5687 28.5421 33 28 33H28.9995V36.005C30.6566 36.005 32 34.6617 32 33.0045V15.005C32 14.3869 31.813 13.8124 31.4925 13.3351C31.4328 13.2109 31.3464 13.0971 31.2339 13.0027L31.2337 13.0026C31.0439 12.791 30.8244 12.6065 30.5818 12.4556L16.6683 0.782585C16.5361 0.671722 16.3904 0.602477 16.2418 0.569488ZM22 32C22 32.5523 22.4477 33 23 33H22V32Z" fill="#D9D9D9"/>
</svg>
