<svg width="31" height="31" viewBox="0 0 31 31" fill="none" xmlns="http://www.w3.org/2000/svg">
<path d="M28.5857 30.8544C28.282 30.8875 27.9799 30.7799 27.7654 30.5625L20.9448 23.6466C19.9448 24.5133 18.7788 25.1883 17.4468 25.6716C16.1149 26.1549 14.6975 26.3966 13.1948 26.3966C9.58938 26.3966 6.53803 25.1466 4.04073 22.6466C1.54343 20.1466 0.294781 17.1299 0.294781 13.5966C0.294781 10.0633 1.54478 7.04659 4.04478 4.54659C6.54478 2.04659 9.56978 0.796588 13.1198 0.796588C16.6698 0.796588 19.6864 2.04659 22.1698 4.54659C24.6531 7.04659 25.8948 10.0658 25.8948 13.6041C25.8948 15.0324 25.6614 16.4133 25.1948 17.7466C24.7281 19.0799 24.0281 20.3299 23.0948 21.4966L29.966 28.3678C30.1803 28.5821 30.2859 28.882 30.2531 29.1832L30.1759 29.8918C30.125 30.3584 29.7566 30.7268 29.29 30.7777L28.5857 30.8544ZM13.1448 23.3966C15.8531 23.3966 18.1552 22.4383 20.051 20.5216C21.9469 18.6049 22.8948 16.2966 22.8948 13.5966C22.8948 10.8966 21.9469 8.58825 20.051 6.67159C18.1552 4.75492 15.8531 3.79659 13.1448 3.79659C10.4087 3.79659 8.08298 4.75492 6.16768 6.67159C4.25241 8.58825 3.29478 10.8966 3.29478 13.5966C3.29478 16.2966 4.25241 18.6049 6.16768 20.5216C8.08298 22.4383 10.4087 23.3966 13.1448 23.3966Z" fill="#d9d9d9"/>
</svg>
